<svg aria-hidden="true" style="position: absolute; width: 0; height: 0; overflow: hidden;" version="1.1" xmlns="http://www.w3.org/2000/svg" xmlns:xlink="http://www.w3.org/1999/xlink">
<defs>
<symbol id="icon-phone" viewBox="0 0 32 32">
<path  d="M28.444 15.956c0-3.457-1.208-6.389-3.623-8.797s-5.356-3.612-8.821-3.613v-3.546c2.222 0 4.304 0.421 6.245 1.264s3.63 1.98 5.067 3.413 2.577 3.117 3.422 5.053c0.845 1.936 1.267 4.011 1.266 6.226h-3.556zM21.333 15.956c0-1.477-0.519-2.733-1.556-3.767s-2.296-1.551-3.778-1.551v-3.546c2.459 0 4.556 0.865 6.29 2.594s2.6 3.819 2.599 6.271h-3.555zM30.133 32c-3.822 0-7.549-0.842-11.179-2.526s-6.845-3.93-9.644-6.737c-2.799-2.807-5.051-6.021-6.756-9.641s-2.556-7.335-2.555-11.146v-0.931c0-0.325 0.030-0.635 0.089-0.931h10.4l1.644 8.909-5.067 5.097c1.244 2.127 2.808 4.122 4.69 5.983s3.948 3.472 6.199 4.831l5.156-5.141 8.889 1.773v10.371c-0.296 0.030-0.607 0.052-0.933 0.067s-0.637 0.022-0.933 0.021z"></path>
</symbol>
<symbol id="icon-email" viewBox="0 0 44 32">
<path  d="M4.431 32c-1.218 0-2.262-0.392-3.13-1.176s-1.302-1.725-1.3-2.824v-24c0-1.1 0.434-2.042 1.303-2.826s1.911-1.175 3.128-1.174h35.446c1.218 0 2.262 0.392 3.13 1.176s1.302 1.725 1.3 2.824v24c0 1.1-0.434 2.042-1.303 2.826s-1.911 1.175-3.128 1.174h-35.446zM22.154 18l17.723-10v-4l-17.723 10-17.723-10v4l17.723 10z"></path>
</symbol>
<symbol id="icon-location" viewBox="0 0 24 32">
<path   d="M12.235 16c0.841 0 1.562-0.314 2.161-0.941s0.899-1.38 0.898-2.259c0-0.88-0.3-1.634-0.899-2.261s-1.319-0.94-2.16-0.939c-0.841 0-1.562 0.314-2.161 0.941s-0.899 1.38-0.898 2.259c0 0.88 0.3 1.634 0.899 2.261s1.319 0.94 2.16 0.939zM12.235 32c-4.104-3.653-7.169-7.046-9.195-10.179s-3.039-6.033-3.040-8.701c0-4 1.23-7.187 3.69-9.56s5.309-3.56 8.545-3.56c3.237 0 6.086 1.187 8.546 3.56s3.69 5.56 3.689 9.56c0 2.667-1.013 5.567-3.041 8.701s-5.092 6.527-9.195 10.179z"></path>
</symbol>
<symbol id="icon-cross" viewBox="7 6 22 22">
<path d="M10.998 26.352l-2.017-1.882 8.067-7.529-8.067-7.529 2.017-1.882 8.067 7.529 8.067-7.529 2.017 1.882-8.067 7.529 8.067 7.529-2.017 1.882-8.067-7.529-8.067 7.529z"></path>
</symbol>
<symbol id="icon-facebook" viewBox="0 0 21 32">
<path fill="#fff" style="fill: var(--color1, #fff)" d="M6.315 32h7.522v-14.6h6.29l0.95-5.68h-7.239v-3.64c0-1.64 0.59-2.76 3.62-2.76h3.876v-5.1c-0.668-0.060-2.952-0.22-5.622-0.22-5.596 0-9.396 2.66-9.396 7.52v4.2h-6.315v5.68h6.315v14.6z"></path>
</symbol>
<symbol id="icon-whatsapp" viewBox="0 0 32 32">
<path fill="#fff" style="fill: var(--color1, #fff)" d="M27.337 4.656c-1.474-1.482-3.23-2.657-5.166-3.456s-4.011-1.207-6.107-1.2c-8.78 0-15.936 7.12-15.936 15.856 0 2.8 0.74 5.52 2.123 7.92l-2.251 8.224 8.442-2.208c2.332 1.264 4.953 1.936 7.622 1.936 8.78 0 15.936-7.12 15.936-15.856 0-4.24-1.656-8.224-4.663-11.216zM16.064 29.040c-2.38 0-4.712-0.64-6.754-1.84l-0.482-0.288-5.017 1.312 1.335-4.864-0.322-0.496c-1.322-2.101-2.024-4.529-2.026-7.008 0-7.264 5.95-13.184 13.25-13.184 3.538 0 6.866 1.376 9.359 3.872 1.234 1.222 2.212 2.676 2.877 4.277s1.004 3.318 0.998 5.050c0.032 7.264-5.918 13.168-13.218 13.168zM23.333 19.184c-0.402-0.192-2.364-1.152-2.718-1.296-0.37-0.128-0.627-0.192-0.901 0.192-0.273 0.4-1.029 1.296-1.254 1.552-0.225 0.272-0.466 0.304-0.868 0.096-0.402-0.192-1.688-0.624-3.2-1.968-1.19-1.056-1.978-2.352-2.219-2.752-0.225-0.4-0.032-0.608 0.177-0.816 0.177-0.176 0.402-0.464 0.595-0.688s0.273-0.4 0.402-0.656c0.129-0.272 0.064-0.496-0.032-0.688s-0.901-2.144-1.222-2.944c-0.322-0.768-0.659-0.672-0.9-0.688h-0.772c-0.273 0-0.691 0.096-1.061 0.496-0.354 0.4-1.383 1.36-1.383 3.312s1.431 3.84 1.624 4.096c0.193 0.272 2.814 4.272 6.802 5.984 0.949 0.416 1.688 0.656 2.267 0.832 0.949 0.304 1.817 0.256 2.509 0.16 0.772-0.112 2.364-0.96 2.685-1.888 0.338-0.928 0.338-1.712 0.225-1.888s-0.354-0.256-0.756-0.448z"></path>
</symbol>
<symbol id="icon-telegram" viewBox="0 0 32 32">
<path fill="#fff" style="fill: var(--color1, #fff)" d="M29.179 0.179l-28.533 13.269c-0.927 0.362-0.824 1.93 0.103 2.292l7.211 2.654 2.884 10.615c0.206 0.844 1.133 1.086 1.648 0.482l4.223-4.584 8.035 6.876c0.618 0.483 1.442 0.121 1.648-0.724l5.562-27.986c0.309-2.051-1.236-3.619-2.781-2.895zM12.492 20.445l-0.927 6.273-2.060-8.685 20.086-15.44-17.099 17.853z"></path>
</symbol>
<symbol id="icon-instagram" viewBox="0 0 32 32">
<path fill="#fff" style="fill: var(--color1, #fff)" d="M9.28 0h13.44c5.12 0 9.28 4.16 9.28 9.28v13.44c0 2.461-0.978 4.822-2.718 6.562s-4.101 2.718-6.562 2.718h-13.44c-5.12 0-9.28-4.16-9.28-9.28v-13.44c0-2.461 0.978-4.822 2.718-6.562s4.101-2.718 6.562-2.718zM8.96 3.2c-1.528 0-2.993 0.607-4.073 1.687s-1.687 2.545-1.687 4.073v14.080c0 3.184 2.576 5.76 5.76 5.76h14.080c1.528 0 2.993-0.607 4.073-1.687s1.687-2.545 1.687-4.073v-14.080c0-3.184-2.576-5.76-5.76-5.76h-14.080zM24.4 5.6c0.53 0 1.039 0.211 1.414 0.586s0.586 0.884 0.586 1.414c0 0.53-0.211 1.039-0.586 1.414s-0.884 0.586-1.414 0.586c-0.53 0-1.039-0.211-1.414-0.586s-0.586-0.884-0.586-1.414c0-0.53 0.211-1.039 0.586-1.414s0.884-0.586 1.414-0.586zM16 8c2.122 0 4.157 0.843 5.657 2.343s2.343 3.535 2.343 5.657c0 2.122-0.843 4.157-2.343 5.657s-3.535 2.343-5.657 2.343c-2.122 0-4.157-0.843-5.657-2.343s-2.343-3.535-2.343-5.657c0-2.122 0.843-4.157 2.343-5.657s3.535-2.343 5.657-2.343zM16 11.2c-1.273 0-2.494 0.506-3.394 1.406s-1.406 2.121-1.406 3.394c0 1.273 0.506 2.494 1.406 3.394s2.121 1.406 3.394 1.406c1.273 0 2.494-0.506 3.394-1.406s1.406-2.121 1.406-3.394c0-1.273-0.506-2.494-1.406-3.394s-2.121-1.406-3.394-1.406z"></path>
</symbol>
<symbol id="icon-contract" viewBox="0 0 32 32">
<path d="M7.111 7.288h14.222v1.422h-14.222v-1.422zM7.111 14.4h7.188v1.422h-7.188v-1.422zM20.78 10.844h-13.669v1.422h12.248l1.421-1.422zM11.372 25.841c0.239 0.274 0.543 0.485 0.883 0.612s0.708 0.169 1.068 0.12h6.936c0.165 0 0.323-0.066 0.44-0.182s0.182-0.275 0.182-0.44-0.066-0.323-0.182-0.44c-0.117-0.117-0.275-0.182-0.44-0.182h-6.936c-0.81-0.014-0.666-0.717-0.552-0.935 0.148-0.256 0.264-0.529 0.344-0.813 0.053-0.229 0.028-0.469-0.071-0.682s-0.267-0.387-0.476-0.493c-0.336-0.152-0.713-0.189-1.073-0.106s-0.682 0.282-0.918 0.565c-0.306 0.316-0.731 0.798-1.138 1.268 0.252-0.986 0.578-2.251 0.898-3.484 0.092-0.281 0.073-0.587-0.051-0.855s-0.346-0.479-0.62-0.591c-0.303-0.104-0.635-0.089-0.928 0.042s-0.525 0.368-0.65 0.663c-0.384 0.739-3.424 5.833-3.454 5.884-0.042 0.070-0.070 0.148-0.081 0.229s-0.008 0.163 0.012 0.242 0.055 0.154 0.104 0.219c0.049 0.066 0.11 0.121 0.18 0.163 0.142 0.085 0.311 0.11 0.471 0.069s0.297-0.143 0.382-0.284c0.114-0.191 2.54-4.256 3.306-5.613-0.576 2.222-1.211 4.695-1.248 4.917-0.042 0.163-0.029 0.336 0.036 0.492s0.18 0.285 0.326 0.37c0.163 0.081 0.348 0.105 0.526 0.069s0.339-0.13 0.457-0.268c0.112-0.101 0.322-0.342 0.851-0.956 0.493-0.58 0.997-1.149 1.514-1.708 0.194-0.204 0.311-0.114 0.197 0.087-0.223 0.281-0.367 0.616-0.418 0.971s-0.009 0.717 0.124 1.050z"></path>
<path d="M24.889 19.285v9.16h-21.333v-24.889h21.333v4.438l1.182-1.182c0.182-0.179 0.381-0.34 0.596-0.48v-3.665c0-0.236-0.094-0.462-0.26-0.629s-0.393-0.26-0.629-0.26h-23.111c-0.236 0-0.462 0.094-0.629 0.26s-0.26 0.393-0.26 0.629v26.667c0 0.236 0.094 0.462 0.26 0.629s0.393 0.26 0.629 0.26h23.111c0.236 0 0.462-0.094 0.629-0.26s0.26-0.393 0.26-0.629v-10.287c-0.545 0.289-1.176 0.373-1.778 0.238z"></path>
<path d="M30.336 10.543l-0.465-0.465c0.238-0.314 0.358-0.701 0.34-1.095s-0.173-0.768-0.438-1.059c-0.344-0.303-0.794-0.458-1.252-0.431s-0.887 0.234-1.193 0.575l-11.133 11.132-0.744 2.793c-0.012 0.037-0.013 0.076-0.004 0.113s0.028 0.071 0.056 0.098c0.027 0.027 0.061 0.046 0.099 0.055s0.076 0.007 0.113-0.005l2.783-0.753 10.393-10.393 0.439 0.44c0.031 0.031 0.055 0.067 0.072 0.107s0.025 0.083 0.025 0.126c0 0.043-0.009 0.086-0.025 0.126s-0.041 0.076-0.072 0.107l-4.371 4.371c-0.133 0.133-0.208 0.314-0.208 0.503s0.075 0.369 0.209 0.503c0.133 0.133 0.314 0.208 0.503 0.208s0.369-0.075 0.503-0.209l4.371-4.371c0.329-0.329 0.513-0.774 0.513-1.239s-0.185-0.91-0.513-1.239v0.001z"></path>
</symbol>
<symbol id="icon-customs" viewBox="0 2 24 20">
<path d="M18.133 3.2c-3.14 0-5.333 1.974-5.333 4.8 0 1.116 0.454 2.088 0.931 2.709l-1.394 2.091h1.53l2.092-0.506c0.056 0.023 0.109 0.046 0.16 0.068 0.576 0.245 1.030 0.439 2.015 0.439 3.14 0 5.333-1.974 5.333-4.8s-2.193-4.8-5.333-4.8zM18.133 11.733c-0.767 0-1.061-0.126-1.596-0.353-0.104-0.044-0.215-0.091-0.336-0.141l-0.161-0.066-1.604 0.401 0.651-0.976-0.309-0.309c-0.453-0.453-0.91-1.337-0.91-2.29 0-2.579 2.143-3.733 4.267-3.733s4.267 1.154 4.267 3.733-2.143 3.733-4.267 3.733zM19.623 6.29l0.754 0.754-2.556 2.556h-0.744l-1.227-1.534 0.833-0.666 0.812 1.016 2.127-2.127zM13.867 18.14v4.273h-1.067v-4.273c0-0.994-0.564-1.663-1.388-2.084l-4.323 5.284h4.111v1.067h-5.333v-1.257l4.479-5.474c-0.576-0.138-1.2-0.202-1.812-0.202-2.063 0-4.267 0.701-4.267 2.667v4.273h-1.067v-4.273c0-2.268 2.093-3.733 5.333-3.733s5.333 1.465 5.333 3.733zM5.867 10.673c0 1.107 0.557 3.2 2.667 3.2s2.667-2.093 2.667-3.2v-0.408l1.22-2.448-0.391-0.261c-0.071-0.047-1.754-1.156-3.496-1.156s-3.425 1.109-3.496 1.156l-0.391 0.261 1.22 2.448v0.408zM8.533 12.806c-1.259 0-1.527-1.316-1.584-1.881 0.436 0.14 1.005 0.275 1.584 0.275s1.149-0.135 1.585-0.276c-0.054 0.565-0.316 1.882-1.585 1.882zM7.264 9.906c0.897-0.222 1.641-0.222 2.538 0-0.355 0.115-0.816 0.228-1.269 0.228s-0.914-0.112-1.269-0.228zM8.533 7.467c0.967 0 1.963 0.452 2.5 0.742l-0.41 0.822c-1.517-0.474-2.664-0.474-4.181 0l-0.41-0.823c0.536-0.289 1.529-0.741 2.501-0.741z"></path>
</symbol>
<symbol id="icon-financial" viewBox="2 0 28 30">
<path d="M16.205 29.539c-2.637 0-5.215-0.782-7.408-2.247s-3.902-3.547-4.911-5.984c-1.009-2.436-1.273-5.117-0.759-7.704s1.784-4.962 3.649-6.827c1.865-1.865 4.24-3.135 6.827-3.649s5.267-0.25 7.704 0.759 4.519 2.718 5.984 4.911c1.465 2.193 2.247 4.771 2.247 7.408-0.004 3.535-1.41 6.924-3.91 9.424s-5.889 3.906-9.424 3.91zM16.205 4.214c-2.372 0-4.69 0.703-6.662 2.021s-3.509 3.19-4.416 5.381c-0.908 2.191-1.145 4.602-0.682 6.928s1.605 4.463 3.282 6.14c1.677 1.677 3.814 2.819 6.14 3.282s4.737 0.225 6.928-0.682c2.191-0.908 4.064-2.445 5.381-4.416s2.021-4.29 2.021-6.662c-0.004-3.179-1.268-6.227-3.516-8.475s-5.296-3.513-8.475-3.516z"></path>
<path d="M19.282 18.232c-0.002 0.716-0.279 1.402-0.771 1.908s-1.159 0.792-1.854 0.794v1.365c0 0.179-0.069 0.351-0.192 0.478s-0.29 0.198-0.464 0.198-0.341-0.071-0.464-0.198c-0.123-0.127-0.192-0.299-0.192-0.478v-1.365h-1.641c-0.174 0-0.341-0.071-0.464-0.198s-0.192-0.299-0.192-0.478c0-0.179 0.069-0.351 0.192-0.478s0.29-0.198 0.464-0.198h2.954c0.348 0 0.682-0.142 0.928-0.396s0.385-0.597 0.385-0.955c0-0.358-0.138-0.702-0.385-0.955s-0.58-0.396-0.928-0.396h-1.313c-0.696 0-1.364-0.285-1.857-0.791s-0.769-1.194-0.769-1.911c0-0.717 0.277-1.404 0.769-1.911s1.16-0.791 1.857-0.791v-1.365c0-0.179 0.069-0.351 0.192-0.478s0.29-0.198 0.464-0.198 0.341 0.071 0.464 0.198c0.123 0.127 0.192 0.299 0.192 0.478v1.365h1.641c0.174 0 0.341 0.071 0.464 0.198s0.192 0.299 0.192 0.478c0 0.179-0.069 0.351-0.192 0.478s-0.29 0.198-0.464 0.198h-2.954c-0.348 0-0.682 0.142-0.928 0.396s-0.384 0.597-0.384 0.955c0 0.358 0.138 0.702 0.384 0.955s0.58 0.396 0.928 0.396h1.313c0.696 0.002 1.362 0.287 1.854 0.794s0.769 1.192 0.771 1.908z"></path>
</symbol>
<symbol id="icon-transport" viewBox="0 3 26 18">
<path d="M25.19 12.57c-0.004-0.161-0.051-0.311-0.13-0.439l0.002 0.004-2.458-3.763c-0.132-0.216-0.367-0.358-0.635-0.358-0.002 0-0.003 0-0.005 0h-3.968c-0.224-1.204-1.258-2.107-2.507-2.125l-0.002-0h-5.555c-0.424 0-0.768 0.344-0.768 0.768v0c-0 0.008-0 0.017-0 0.026 0 0.41 0.332 0.742 0.742 0.742 0.009 0 0.018-0 0.027-0l-0.001 0h5.555c0.535 0.011 0.971 0.42 1.024 0.943l0 0.004 0.64 8.013h-4.506c-0.355-1.081-1.355-1.847-2.534-1.847s-2.179 0.766-2.529 1.828l-0.005 0.019h-1.741c-0.419 0.014-0.754 0.349-0.768 0.767l-0 0.001c0 0.424 0.344 0.768 0.768 0.768v0h1.741c0.327 1.111 1.337 1.909 2.534 1.909s2.208-0.798 2.53-1.89l0.005-0.019h5.786c0.331 1.104 1.338 1.894 2.53 1.894 0.002 0 0.003 0 0.005 0h-0c1.188-0.015 2.188-0.799 2.529-1.875l0.005-0.019c0.854-0.126 1.506-0.84 1.536-1.712l0-0.003zM10.112 18.278c-0.611-0.014-1.101-0.513-1.101-1.126 0-0 0-0 0-0v0c0-0.608 0.493-1.101 1.101-1.101s1.101 0.493 1.101 1.101v0c0 0 0 0 0 0 0 0.613-0.49 1.112-1.099 1.126l-0.001 0zM23.014 11.802h-4.685l-0.179-2.253h3.405zM20.966 18.278c-0.622 0-1.126-0.504-1.126-1.126v0c0.014-0.611 0.513-1.101 1.126-1.101 0 0 0 0 0 0h-0c0.608 0 1.101 0.493 1.101 1.101v0c0 0 0 0 0 0 0 0.613-0.49 1.112-1.099 1.126l-0.001 0zM20.966 14.515c-0.003 0-0.006-0-0.009-0-0.991 0-1.855 0.541-2.313 1.344l-0.007 0.013-0.205-2.534h5.197l-0.102 2.816-0.077 0.154c-0.354-1.050-1.33-1.792-2.479-1.792-0.001 0-0.003 0-0.004 0h0z"></path>
<path d="M2.842 13.030h10.65c0.424 0 0.768-0.344 0.768-0.768v0c0-0.008 0-0.017 0-0.026 0-0.41-0.332-0.742-0.742-0.742-0.009 0-0.018 0-0.027 0.001l0.001-0h-10.957c-1.204 0.158-2.125 1.178-2.125 2.413 0 1.343 1.089 2.432 2.432 2.432s2.432-1.089 2.432-2.432c0-0.002 0-0.004 0-0.006v0c0-0.424-0.344-0.768-0.768-0.768s-0.768 0.344-0.768 0.768v0c0 0.008 0 0.017 0 0.026 0 0.495-0.401 0.896-0.896 0.896s-0.896-0.401-0.896-0.896c0-0.495 0.401-0.896 0.896-0.896h0z"></path>
<path d="M6.17 7.322c0.484 0.014 0.87 0.41 0.87 0.896 0 0 0 0 0 0v-0c0 0.424 0.344 0.768 0.768 0.768v0c0.008 0 0.017 0 0.026 0 0.41 0 0.742-0.332 0.742-0.742 0-0.009-0-0.018-0.001-0.027l0 0.001c0-0.003 0-0.006 0-0.009 0-1.343-1.089-2.432-2.432-2.432s-2.432 1.089-2.432 2.432c0 1.244 0.934 2.27 2.139 2.415l0.012 0.001h7.629c0.424 0 0.768-0.344 0.768-0.768s-0.344-0.768-0.768-0.768v0h-7.322c-0.495 0-0.896-0.401-0.896-0.896s0.401-0.896 0.896-0.896v0z"></path>
</symbol>
<symbol id="icon-step2" viewBox="0 0 50 32">
<path fill="#fec001" style="fill: var(--color1, #fec001)" d="M25.028 2.028l-7.222 6.426c-1.201 1.066-1.432 2.983-0.522 4.352 0.962 1.459 2.835 1.746 4.126 0.639l7.408-6.328c0.522-0.443 1.268-0.344 1.679 0.229s0.313 1.393-0.209 1.844l-1.559 1.328 10.37 10.491v-15.475h-0.052l-5.707-4.016c-1.141-0.803-2.477-1.229-3.835-1.229-1.626 0-3.208 0.615-4.477 1.738zM26.729 12.224l-3.857 3.295c-2.35 2.016-5.76 1.492-7.52-1.164-1.656-2.5-1.239-5.991 0.948-7.934l6.207-5.516c-0.865-0.402-1.798-0.607-2.745-0.607-1.403-0.008-2.768 0.451-3.939 1.303l-5.372 3.934v18.36h2.104l6.819 6.836c1.462 1.467 3.723 1.352 5.058-0.254 0.41-0.5 0.686-1.082 0.828-1.688l1.268 1.279c1.455 1.467 3.723 1.361 5.058-0.238 0.336-0.402 0.582-0.869 0.739-1.352 1.447 1.066 3.417 0.844 4.633-0.615 1.335-1.598 1.239-4.090-0.216-5.557l-10.012-10.081zM2.094 5.536c-0.657 0-1.194 0.59-1.194 1.311v17.048c0 1.451 1.067 2.623 2.387 2.623h2.387c1.321 0 2.387-1.172 2.387-2.623v-18.36h-5.969zM4.481 21.273c0.317 0 0.62 0.138 0.844 0.384s0.35 0.579 0.35 0.927-0.126 0.681-0.35 0.927c-0.224 0.246-0.527 0.384-0.844 0.384s-0.62-0.138-0.844-0.384c-0.224-0.246-0.35-0.579-0.35-0.927s0.126-0.681 0.35-0.927c0.224-0.246 0.527-0.384 0.844-0.384zM41.486 5.536v18.36c0 1.451 1.067 2.623 2.388 2.623h2.387c1.321 0 2.387-1.172 2.387-2.623v-17.048c0-0.721-0.537-1.311-1.194-1.311h-5.969zM43.874 22.584c0-0.348 0.126-0.681 0.35-0.927s0.527-0.384 0.844-0.384 0.62 0.138 0.844 0.384c0.224 0.246 0.35 0.579 0.35 0.927s-0.126 0.681-0.35 0.927c-0.224 0.246-0.527 0.384-0.844 0.384s-0.62-0.138-0.844-0.384c-0.224-0.246-0.35-0.579-0.35-0.927z"></path>
</symbol>
<symbol id="icon-step1" viewBox="0 0 40 32">
<path fill="#fec001" style="fill: var(--color1, #fec001)" d="M4.095 31.763c-1.104 0-2.050-0.386-2.837-1.157s-1.18-1.697-1.178-2.777v-23.603c0-1.082 0.394-2.008 1.18-2.779s1.732-1.156 2.835-1.155h32.122c1.104 0 2.050 0.385 2.837 1.157s1.18 1.697 1.178 2.777v23.603c0 1.082-0.393 2.008-1.18 2.779s-1.732 1.156-2.835 1.155h-32.122zM20.155 17.995l16.061-9.835v-3.934l-16.061 9.835-16.061-9.835v3.934l16.061 9.835z"></path>
</symbol>
<symbol id="icon-step3" viewBox="0 0 23 32">
<path fill="#fec001" style="fill: var(--color1, #fec001)" d="M22.74 11.589c0-6.075-5.083-11.020-11.328-11.020s-11.328 4.945-11.328 11.020c0 2.261 0.726 4.38 1.936 6.122v0.047l9.343 13.705 9.44-13.752c1.21-1.743 1.936-3.862 1.936-6.122zM11.412 17.712c-3.486 0-6.293-2.732-6.293-6.122s2.808-6.122 6.293-6.122c3.486 0 6.293 2.732 6.293 6.122 0 3.344-2.759 6.122-6.293 6.122z"></path>
</symbol>
<symbol id="icon-step4" viewBox="0 0 33 32">
<path fill="#fec001" style="fill: var(--color1, #fec001)" opacity="0.3" d="M23.1 14.739h2.704v2.556h-2.704v2.556h2.704v2.556h-2.704v2.556h5.408v-17.894h-12.168v1.789l6.76 4.563v1.316zM23.1 9.627h2.704v2.556h-2.704v-2.556z"></path>
<path fill="#fec001" style="fill: var(--color1, #fec001)" d="M13.477 4.207v2.507l1.269 0.878 1.374 0.942v-1.781h11.893v17.815h-5.286v2.545h7.928v-22.905h-17.178z"></path>
<path fill="#fec001" style="fill: var(--color1, #fec001)" opacity="0.3" d="M4.888 15.899v9.066h2.577v-6.476h7.73v6.476h2.577v-9.066l-6.442-4.533-6.442 4.533z"></path>
<path fill="#fec001" style="fill: var(--color1, #fec001)" d="M23.021 9.791h2.624v2.577h-2.624v-2.577zM23.021 14.945h2.624v2.577h-2.624v-2.577zM23.021 20.098h2.624v2.577h-2.624v-2.577zM2.025 14.945v12.884h7.873v-6.442h2.624v6.442h7.873v-12.884l-9.186-6.442-9.186 6.442zM17.772 25.252h-2.624v-6.442h-7.873v6.442h-2.624v-9.019l6.561-4.509 6.561 4.509v9.019z"></path>
</symbol>
<symbol id="icon-step5" viewBox="0 0 30 32">
<path fill="#fec001" style="fill: var(--color1, #fec001)" d="M5.986 7.12h17.782v5.623l-8.891-2.783-8.891 2.783zM2.933 25.579h0.089c2.371 0 4.445-1.25 5.927-2.84 1.482 1.59 3.556 2.84 5.927 2.84s4.445-1.25 5.927-2.84c1.482 1.59 3.556 2.84 5.927 2.84h0.074l2.815-9.499c0.119-0.355 0.074-0.753-0.089-1.093-0.193-0.341-0.504-0.596-0.889-0.71l-1.912-0.596v-6.56c0-0.753-0.312-1.476-0.868-2.008s-1.31-0.832-2.096-0.832h-4.445v-4.26h-8.891v4.26h-4.445c-0.786 0-1.54 0.299-2.096 0.832s-0.868 1.255-0.868 2.008v6.56l-1.912 0.596c-0.385 0.114-0.696 0.369-0.889 0.71-0.163 0.341-0.207 0.738-0.089 1.093zM26.731 28.419c-2.060 0-4.119-0.667-5.927-1.889-3.616 2.428-8.239 2.428-11.854 0-1.808 1.221-3.867 1.889-5.927 1.889h-2.964v2.84h2.964c2.030 0 4.060-0.497 5.927-1.42 3.705 1.846 8.15 1.846 11.854 0 1.867 0.923 3.882 1.42 5.927 1.42h2.964v-2.84h-2.964z"></path>
</symbol>
<symbol id="icon-step6" viewBox="0 0 33 32">
<path fill="#fec001" style="fill: var(--color1, #fec001)" d="M7.888 0.629c-0.967 0-1.895 0.374-2.579 1.040s-1.068 1.569-1.068 2.511v17.757c0 0.942 0.384 1.845 1.068 2.511s1.612 1.040 2.579 1.040v0.481c0 0.977-0.247 1.787-0.646 2.294-0.4 0.504-0.904 0.776-1.786 0.776s-1.386-0.272-1.786-0.776c-0.399-0.505-0.646-1.319-0.646-2.294v-5.696c0.005-0.18-0.033-0.358-0.11-0.522s-0.191-0.308-0.334-0.422-0.311-0.195-0.49-0.237c-0.18-0.042-0.367-0.043-0.547-0.003-0.274 0.060-0.519 0.211-0.692 0.427s-0.264 0.483-0.257 0.757v5.696c0 1.378 0.359 2.699 1.178 3.737 0.819 1.036 2.147 1.701 3.685 1.701s2.865-0.665 3.685-1.702c0.819-1.036 1.178-2.358 1.178-3.736v-0.481c0.967 0 1.895-0.374 2.579-1.040s1.068-1.569 1.068-2.511v-17.757c0-0.942-0.384-1.845-1.068-2.511s-1.612-1.040-2.579-1.040h-2.431zM18.829 0.629c-0.967 0-1.895 0.374-2.579 1.040s-1.068 1.569-1.068 2.511v17.757c0 0.942 0.384 1.845 1.068 2.511s1.612 1.040 2.579 1.040h8.51c2.014 0 4.748-1.554 4.748-12.43s-2.734-12.43-4.748-12.43h-8.51zM19.437 4.18h8.51c0.161 0 0.316 0.062 0.43 0.173s0.178 0.262 0.178 0.419v3.551c0 0.157-0.064 0.308-0.178 0.419s-0.269 0.173-0.43 0.173h-8.51c-0.161 0-0.316-0.062-0.43-0.173s-0.178-0.261-0.178-0.419v-3.551c0-0.157 0.064-0.308 0.178-0.419s0.269-0.173 0.43-0.173zM19.437 11.283h1.216c0.161 0 0.316 0.062 0.43 0.173s0.178 0.261 0.178 0.419v1.184c0 0.157-0.064 0.308-0.178 0.419s-0.269 0.173-0.43 0.173h-1.216c-0.161 0-0.316-0.062-0.43-0.173s-0.178-0.262-0.178-0.419v-1.184c0-0.157 0.064-0.308 0.178-0.419s0.269-0.173 0.43-0.173zM23.084 11.283h1.216c0.161 0 0.316 0.062 0.43 0.173s0.178 0.261 0.178 0.419v1.184c0 0.157-0.064 0.308-0.178 0.419s-0.269 0.173-0.43 0.173h-1.216c-0.161 0-0.316-0.062-0.43-0.173s-0.178-0.262-0.178-0.419v-1.184c0-0.157 0.064-0.308 0.178-0.419s0.269-0.173 0.43-0.173zM26.731 11.283h1.216c0.161 0 0.316 0.062 0.43 0.173s0.178 0.261 0.178 0.419v1.184c0 0.157-0.064 0.308-0.178 0.419s-0.269 0.173-0.43 0.173h-1.216c-0.161 0-0.316-0.062-0.43-0.173s-0.178-0.262-0.178-0.419v-1.184c0-0.157 0.064-0.308 0.178-0.419s0.269-0.173 0.43-0.173zM19.437 14.834h1.216c0.161 0 0.316 0.062 0.43 0.173s0.178 0.261 0.178 0.419v1.184c0 0.157-0.064 0.308-0.178 0.419s-0.269 0.173-0.43 0.173h-1.216c-0.161 0-0.316-0.062-0.43-0.173s-0.178-0.262-0.178-0.419v-1.184c0-0.157 0.064-0.308 0.178-0.419s0.269-0.173 0.43-0.173zM23.084 14.834h1.216c0.161 0 0.316 0.062 0.43 0.173s0.178 0.261 0.178 0.419v1.184c0 0.157-0.064 0.308-0.178 0.419s-0.269 0.173-0.43 0.173h-1.216c-0.161 0-0.316-0.062-0.43-0.173s-0.178-0.262-0.178-0.419v-1.184c0-0.157 0.064-0.308 0.178-0.419s0.269-0.173 0.43-0.173zM26.731 14.834h1.216c0.161 0 0.316 0.062 0.43 0.173s0.178 0.261 0.178 0.419v1.184c0 0.157-0.064 0.308-0.178 0.419s-0.269 0.173-0.43 0.173h-1.216c-0.161 0-0.316-0.062-0.43-0.173s-0.178-0.262-0.178-0.419v-1.184c0-0.157 0.064-0.308 0.178-0.419s0.269-0.173 0.43-0.173zM19.437 18.386h1.216c0.161 0 0.316 0.062 0.43 0.173s0.178 0.262 0.178 0.419v1.184c0 0.157-0.064 0.308-0.178 0.419s-0.269 0.173-0.43 0.173h-1.216c-0.161 0-0.316-0.062-0.43-0.173s-0.178-0.262-0.178-0.419v-1.184c0-0.157 0.064-0.307 0.178-0.419s0.269-0.173 0.43-0.173zM23.084 18.386h1.216c0.161 0 0.316 0.062 0.43 0.173s0.178 0.262 0.178 0.419v1.184c0 0.157-0.064 0.308-0.178 0.419s-0.269 0.173-0.43 0.173h-1.216c-0.161 0-0.316-0.062-0.43-0.173s-0.178-0.262-0.178-0.419v-1.184c0-0.157 0.064-0.307 0.178-0.419s0.269-0.173 0.43-0.173zM26.731 18.386h1.216c0.161 0 0.316 0.062 0.43 0.173s0.178 0.262 0.178 0.419v1.184c0 0.157-0.064 0.308-0.178 0.419s-0.269 0.173-0.43 0.173h-1.216c-0.161 0-0.316-0.062-0.43-0.173s-0.178-0.262-0.178-0.419v-1.184c0-0.157 0.064-0.307 0.178-0.419s0.269-0.173 0.43-0.173z"></path>
</symbol>
<symbol id="icon-menu" viewBox="0 0 48 32">
<path fill="#fff" style="fill: var(--color1, #fff)" d="M2.667 32c-0.756 0-1.388-0.256-1.899-0.768-0.512-0.51-0.768-1.143-0.768-1.899s0.256-1.388 0.768-1.899c0.51-0.512 1.143-0.768 1.899-0.768h42.667c0.756 0 1.388 0.256 1.899 0.768 0.512 0.51 0.768 1.143 0.768 1.899s-0.256 1.388-0.768 1.899c-0.51 0.512-1.143 0.768-1.899 0.768h-42.667zM2.667 18.667c-0.756 0-1.388-0.256-1.899-0.768-0.512-0.51-0.768-1.143-0.768-1.899s0.256-1.389 0.768-1.901c0.51-0.51 1.143-0.765 1.899-0.765h42.667c0.756 0 1.388 0.255 1.899 0.765 0.512 0.512 0.768 1.146 0.768 1.901s-0.256 1.388-0.768 1.899c-0.51 0.512-1.143 0.768-1.899 0.768h-42.667zM2.667 5.333c-0.756 0-1.388-0.255-1.899-0.765-0.512-0.512-0.768-1.146-0.768-1.901s0.256-1.389 0.768-1.901c0.51-0.51 1.143-0.765 1.899-0.765h42.667c0.756 0 1.388 0.255 1.899 0.765 0.512 0.512 0.768 1.146 0.768 1.901s-0.256 1.389-0.768 1.901c-0.51 0.51-1.143 0.765-1.899 0.765h-42.667z"></path>

</symbol>
<symbol id="icon-calender" viewBox="0 0 30 32">
<path fill="#fec001" style="fill: var(--color1, #fec001)" d="M24.96 5.92h-2.56v-1.36c0-0.361-0.135-0.707-0.375-0.962s-0.566-0.398-0.905-0.398c-0.34 0-0.665 0.143-0.905 0.398s-0.375 0.601-0.375 0.962v1.36h-7.68v-1.36c0-0.361-0.135-0.707-0.375-0.962s-0.566-0.398-0.905-0.398c-0.339 0-0.665 0.143-0.905 0.398s-0.375 0.601-0.375 0.962v1.36h-2.56c-1.018 0-1.995 0.43-2.715 1.195s-1.125 1.803-1.125 2.885v16.32c0 1.082 0.405 2.12 1.125 2.885s1.697 1.195 2.715 1.195h17.92c1.018 0 1.995-0.43 2.715-1.195s1.125-1.803 1.125-2.885v-16.32c0-1.082-0.405-2.12-1.125-2.885s-1.697-1.195-2.715-1.195zM26.24 26.32c0 0.361-0.135 0.707-0.375 0.962s-0.566 0.398-0.905 0.398h-17.92c-0.339 0-0.665-0.143-0.905-0.398s-0.375-0.601-0.375-0.962v-9.52h20.48v9.52zM26.24 14.080h-20.48v-4.080c0-0.361 0.135-0.707 0.375-0.962s0.566-0.398 0.905-0.398h2.56v1.36c0 0.361 0.135 0.707 0.375 0.962s0.566 0.398 0.905 0.398c0.339 0 0.665-0.143 0.905-0.398s0.375-0.601 0.375-0.962v-1.36h7.68v1.36c0 0.361 0.135 0.707 0.375 0.962s0.566 0.398 0.905 0.398c0.34 0 0.665-0.143 0.905-0.398s0.375-0.601 0.375-0.962v-1.36h2.56c0.34 0 0.665 0.143 0.905 0.398s0.375 0.601 0.375 0.962v4.080z"></path>
</symbol>
<symbol id="icon-schedule" viewBox="0 0 32 32">
<path  d="M15.333 8h-2v10.667h8v-2.133h-6v-8.533z"></path>
<path  d="M16 0c-6 0-11.2 3.2-13.8 8.2l-2.2-2.2v8h8l-3-3c2-4 6.2-7 11-7 6.6 0 12 5.4 12 12s-5.4 12-12 12c-3.6 0-6.8-1.6-9-4.2l-3 2.6c2.8 3.4 7.2 5.6 12 5.6 8.8 0 16-7.2 16-16s-7.2-16-16-16z"></path>
</symbol>
<symbol id="icon-arrow_down" viewBox="0 0 20 20">
<path d="M7.406 8.578l4.594 4.594 4.594-4.594 1.406 1.406-6 6-6-6z"></path>
</symbol>
</defs>
</svg>
